<svg width="62" height="70" fill="none" xmlns="http://www.w3.org/2000/svg"><path d="M5.034 21.833h36.802a1.14 1.14 0 001.138-1.139V6.6a1.14 1.14 0 00-1.138-1.138H5.034a1.14 1.14 0 00-1.138 1.138v14.095a1.14 1.14 0 001.138 1.139zm.569-14.665h35.664v12.957H5.603V7.168z" fill="#6ABF16"/><path d="M47.047 36.944V3.82A3.816 3.816 0 0043.245 0H3.804A3.816 3.816 0 000 3.82v62.328a3.816 3.816 0 003.803 3.821h39.441a.882.882 0 00.107-.007c.375.024.754.038 1.135.038 9.361 0 16.977-7.457 16.977-16.623 0-8.313-6.265-15.22-14.416-16.433zM3.803 68.262a2.107 2.107 0 01-2.096-2.114V3.821a2.107 2.107 0 012.096-2.114h39.441a2.107 2.107 0 012.096 2.114v32.955a17.222 17.222 0 00-2.219.033V26.232a1.15 1.15 0 00-1.148-1.15H4.485a1.15 1.15 0 00-1.149 1.15v38.443a1.151 1.151 0 001.149 1.15h24.013a.84.84 0 00.58 0h4.172a17.068 17.068 0 003.685 2.437H3.803zm13.31-4.143v-7.841h10.656c.155.856.378 1.698.668 2.518a.854.854 0 00-.502.777v4.545H17.113zm-12.07 0v-7.841h10.362v7.84H5.044zm23.448-37.33v8.062H17.113v-8.062H28.49zm12.923 0v8.062H30.198v-8.062h11.216zM27.51 53.377c0 .401.016.8.044 1.193h-10.44v-8.3H28.49v1.539a16.236 16.236 0 00-.98 5.568zM5.044 36.558h10.361v8.004H5.044v-8.004zm0 9.712h10.361v8.3H5.044v-8.3zm12.069-1.708v-8.004H28.49v8.004H17.113zm-1.708-9.711H5.044v-8.062h10.361v8.062zm14.237 26.584c.543.955 1.18 1.854 1.9 2.684h-1.9v-2.684zm.556-17.025v-7.852h11.216v.47a17.034 17.034 0 00-11.216 7.382zm14.288 23.883c-8.42 0-15.27-6.691-15.27-14.916 0-8.224 6.851-14.915 15.27-14.915 8.42 0 15.27 6.691 15.27 14.915 0 8.225-6.85 14.916-15.27 14.916z" fill="#6ABF16"/><path d="M45.587 44.86v-1.215a.854.854 0 00-1.708 0v1.217c-.863.112-1.668.5-2.296 1.103-1.277 1.245-1.352 2.99-1.345 3.495.028 1.962 1.519 3.617 3.624 4.026l.19.037c.16.031.355.07.475.092.073.014.244.065.335.093a.856.856 0 01.125.047l.294.112c.029.01.058.023.086.038.14.07.175.091.278.15l.153.09.034.02c.01.007.02.014.033.02.309.187 1.853 1.191 1.915 2.657.037.876-.189 1.546-.69 2.047-.691.691-1.86.964-2.714.928-1.798-.075-2.86-1.534-2.949-2.33a.852.852 0 10-1.696.191c.247 2.206 2.44 3.548 4.148 3.803v1.037a.854.854 0 101.708 0v-1.087c.941-.169 1.95-.574 2.71-1.335.834-.834 1.245-1.984 1.189-3.326-.096-2.274-2.112-3.667-2.742-4.048a7.795 7.795 0 00-.083-.051l-.159-.091a5.772 5.772 0 00-.364-.198 2.595 2.595 0 00-.25-.11l-.278-.107a2.597 2.597 0 00-.258-.093 5.518 5.518 0 00-.506-.134l-.465-.09-.194-.038c-1.53-.297-2.228-1.406-2.242-2.374-.01-.686.203-1.636.83-2.248.499-.486 1.22-.715 2.143-.677a3.273 3.273 0 013.14 2.336.854.854 0 001.659-.403 4.95 4.95 0 00-4.13-3.584z" fill="#6ABF16"/></svg>