<svg width="70" height="70" fill="none" xmlns="http://www.w3.org/2000/svg"><path d="M35 0C15.67 0 0 15.67 0 35s15.67 35 35 35 35-15.67 35-35C69.978 15.68 54.32.022 35 0zm0 67.667C16.959 67.667 2.333 53.04 2.333 35 2.333 16.959 16.96 2.333 35 2.333 53.041 2.333 67.667 16.96 67.667 35 67.647 53.033 53.033 67.646 35 67.667z" fill="#6ABF16"/><path d="M28 29.167c0-.645-.522-1.167-1.167-1.167h-4.666A1.21 1.21 0 0021 29.167v4.666a1.167 1.167 0 102.333 0v-1.642a15.882 15.882 0 005.869 3.159 5.806 5.806 0 0011.593.032c3.991-.984 8.633-3.072 11.362-7.441l.378 1.51a1.167 1.167 0 002.265-.568l-1.167-4.666a1.18 1.18 0 00-1.415-.849l-4.667 1.167a1.167 1.167 0 10.567 2.263l2.362-.59c-2.235 3.991-6.388 5.91-10.006 6.839a5.8 5.8 0 00-10.934-.035 13.347 13.347 0 01-4.79-2.679h2.083c.645 0 1.167-.522 1.167-1.166zm7 2.333a3.5 3.5 0 110 7 3.5 3.5 0 010-7zM24.414 46.227a1.167 1.167 0 00-2.165.874c.109.266 2.742 6.566 12.751 6.566a1.167 1.167 0 000-2.334c-8.34 0-10.493-4.883-10.586-5.106zM32.667 22.167V17.5a1.167 1.167 0 00-2.334 0v4.667a1.167 1.167 0 002.334 0zM39.667 22.167V17.5a1.167 1.167 0 00-2.334 0v4.667a1.167 1.167 0 002.334 0z" fill="#6ABF16"/><path d="M60.212 20.363A29.373 29.373 0 0049.637 9.788c-.02-.014-.032-.035-.054-.047-.022-.013-.046-.012-.069-.024a29.028 29.028 0 00-28.98-.014 1.05 1.05 0 00-.117.038 1.06 1.06 0 00-.1.088 29.391 29.391 0 00-3.112 2.082 1.168 1.168 0 001.43 1.845 25.7 25.7 0 011.958-1.378l1.147 1.984a1.167 1.167 0 102.02-1.167l-1.15-1.988a26.432 26.432 0 0111.223-2.994V10.5a1.167 1.167 0 002.334 0V8.196a26.627 26.627 0 0111.22 3.013L46.24 13.2a1.167 1.167 0 102.02 1.166l1.147-1.983a27.039 27.039 0 018.214 8.213l-1.984 1.147a1.167 1.167 0 101.167 2.02l1.989-1.147a26.627 26.627 0 013.011 11.218H59.5a1.167 1.167 0 000 2.334h2.304a26.628 26.628 0 01-3.013 11.22L56.8 46.24a1.167 1.167 0 10-1.166 2.02l1.983 1.147a27.04 27.04 0 01-8.213 8.214l-1.147-1.984a1.167 1.167 0 10-2.02 1.167l1.147 1.989a26.627 26.627 0 01-11.218 3.011V59.5a1.167 1.167 0 00-2.334 0v2.304a26.628 26.628 0 01-11.22-3.013l1.147-1.99a1.167 1.167 0 10-2.02-1.166l-1.147 1.983a27.04 27.04 0 01-8.213-8.213l1.983-1.147a1.167 1.167 0 10-1.167-2.02l-1.983 1.147a26.627 26.627 0 01-3.017-11.218H10.5a1.167 1.167 0 000-2.334H8.217a26.849 26.849 0 013.011-11.21l1.97 1.137a1.167 1.167 0 101.167-2.02l-1.97-1.139a26.276 26.276 0 011.675-2.37 1.167 1.167 0 10-1.82-1.461 29.017 29.017 0 00-2.398 3.52c-.042.039-.08.081-.116.127a1.21 1.21 0 00-.042.124 29.02 29.02 0 00.018 28.973c.012.023.011.047.024.07.013.021.044.054.064.083a29.383 29.383 0 0010.558 10.545c.02.014.032.035.054.047.022.013.068.026.102.042a29.063 29.063 0 0028.963 0c.034-.016.069-.023.102-.041.032-.02.033-.034.053-.048a29.383 29.383 0 0010.559-10.545c.02-.029.045-.052.064-.084.018-.031.011-.046.023-.069a29.063 29.063 0 000-29.029c-.011-.022-.01-.046-.023-.068-.013-.023-.03-.034-.043-.054z" fill="#6ABF16"/></svg>