<svg width="74" height="70" fill="none" xmlns="http://www.w3.org/2000/svg"><path d="M56.337 10.435a1.201 1.201 0 00.261-.008 2.662 2.662 0 012.608 2.659 1.191 1.191 0 002.382 0 5.051 5.051 0 00-3.964-4.926V7.015a1.191 1.191 0 00-2.382 0v1.199a5.043 5.043 0 001.303 9.915 2.661 2.661 0 11-2.661 2.662 1.191 1.191 0 00-2.383 0 5.052 5.052 0 003.741 4.872v1.305a1.191 1.191 0 002.382 0v-1.25a5.043 5.043 0 00-1.08-9.97 2.66 2.66 0 01-.207-5.312z" fill="#6ABF16"/><path d="M56.613 0C49.285 0 43.03 4.782 40.688 11.184H11.123c-.655 0-1.187.59-1.191 1.245L9.65 54.217H1.223c-.658 0-1.223.476-1.223 1.135v5.303a9.357 9.357 0 008.934 9.319V70h36.778v-.035c.298.011.42.035.61.035h.025a9.357 9.357 0 009.342-9.356V33.832c.297.017.613.025.921.025 9.326 0 16.914-7.603 16.914-16.929C73.524 7.603 65.94 0 56.613 0zM9.38 67.618a7.007 7.007 0 01-6.998-6.975v-4.044h34.545v4.027a9.345 9.345 0 002.758 6.621c.125.125.28.222.412.37H9.38zm43.926-6.975a6.974 6.974 0 01-6.96 6.975h-.023a7.026 7.026 0 01-7.013-6.991v-5.275a1.1 1.1 0 00-1.137-1.135h-26.14l.273-40.65h27.72a17.909 17.909 0 00-.326 3.308 16.798 16.798 0 001.438 6.817h-11.25a1.19 1.19 0 100 2.382H42.43a16.81 16.81 0 0010.875 7.46v27.108zm3.307-29.168c-8.024 0-14.53-6.505-14.53-14.53 0-8.024 6.506-14.53 14.53-14.53 8.025 0 14.53 6.506 14.53 14.53-.009 8.021-6.509 14.522-14.53 14.53z" fill="#6ABF16"/><path d="M22.24 31.62c-2.102 0-3.812 1.656-3.812 3.692 0 2.035 1.71 3.691 3.813 3.691 2.102 0 3.813-1.656 3.813-3.691 0-2.036-1.71-3.692-3.813-3.692zm0 5c-.788 0-1.43-.587-1.43-1.308 0-.723.642-1.31 1.43-1.31.79 0 1.432.588 1.432 1.31 0 .721-.643 1.309-1.431 1.309zM28.696 35.306a1.19 1.19 0 001.191 1.191h15.881a1.191 1.191 0 100-2.382h-15.88a1.19 1.19 0 00-1.192 1.191zM22.24 21.265c-2.102 0-3.812 1.656-3.812 3.692 0 2.036 1.71 3.692 3.813 3.692 2.102 0 3.813-1.656 3.813-3.692 0-2.036-1.71-3.692-3.813-3.692zm0 5.001c-.788 0-1.43-.587-1.43-1.309s.642-1.31 1.43-1.31c.79 0 1.432.588 1.432 1.31 0 .722-.643 1.31-1.431 1.31zM22.24 41.974c-2.102 0-3.812 1.656-3.812 3.691 0 2.036 1.71 3.692 3.813 3.692 2.102 0 3.813-1.656 3.813-3.692 0-2.035-1.71-3.691-3.813-3.691zm0 5c-.788 0-1.43-.586-1.43-1.309 0-.721.642-1.309 1.43-1.309.79 0 1.432.587 1.432 1.31 0 .721-.643 1.309-1.431 1.309zM45.768 44.538h-15.88a1.19 1.19 0 100 2.383h15.88a1.191 1.191 0 000-2.383z" fill="#6ABF16"/></svg>