<svg width="33" height="33" fill="none" xmlns="http://www.w3.org/2000/svg"><path d="M24.879 14.824a1.29 1.29 0 100-2.578 1.29 1.29 0 000 2.578z" fill="#FFDE33"/><path d="M27.844 2.578h-1.676V1.29a1.289 1.289 0 10-2.578 0v1.29h-5.865v-1.29a1.289 1.289 0 10-2.579 0v1.29h-5.8v-1.29a1.289 1.289 0 10-2.578 0v1.29H5.156A5.162 5.162 0 000 7.733v20.11A5.162 5.162 0 005.156 33h9.862a1.289 1.289 0 000-2.578H5.156a2.581 2.581 0 01-2.578-2.578V7.734a2.581 2.581 0 012.578-2.578h1.612v1.29a1.289 1.289 0 102.578 0v-1.29h5.8v1.29a1.289 1.289 0 102.579 0v-1.29h5.865v1.29a1.29 1.29 0 002.578 0v-1.29h1.676a2.581 2.581 0 012.578 2.578v7.348a1.289 1.289 0 102.578 0V7.734a5.162 5.162 0 00-5.156-5.156z" fill="#FFDE33"/><path d="M25.201 17.402c-4.3 0-7.799 3.499-7.799 7.8 0 4.3 3.499 7.798 7.8 7.798 4.3 0 7.798-3.498 7.798-7.799 0-4.3-3.498-7.799-7.799-7.799zm0 13.02a5.227 5.227 0 01-5.22-5.22 5.227 5.227 0 015.22-5.222 5.227 5.227 0 015.22 5.221 5.227 5.227 0 01-5.22 5.22z" fill="#FFDE33"/><path d="M27.07 23.912h-.58V22.56a1.289 1.289 0 10-2.578 0V25.2c0 .712.577 1.29 1.29 1.29h1.868a1.289 1.289 0 100-2.579zM19.271 14.824a1.289 1.289 0 100-2.578 1.289 1.289 0 000 2.578zM13.664 20.432a1.289 1.289 0 100-2.578 1.289 1.289 0 000 2.578zM8.057 14.824a1.289 1.289 0 100-2.578 1.289 1.289 0 000 2.578zM8.057 20.432a1.289 1.289 0 100-2.578 1.289 1.289 0 000 2.578zM8.057 26.04a1.29 1.29 0 100-2.58 1.29 1.29 0 000 2.58zM13.664 26.04a1.29 1.29 0 100-2.58 1.29 1.29 0 000 2.58zM13.664 14.824a1.289 1.289 0 100-2.578 1.289 1.289 0 000 2.578z" fill="#FFDE33"/></svg>