<svg width="56" height="83" fill="none" xmlns="http://www.w3.org/2000/svg"><path d="M23.897 18.314c5.063 0 9.168-4.1 9.168-9.156C33.065 4.1 28.96 0 23.897 0c-5.062 0-9.167 4.1-9.167 9.158 0 5.057 4.105 9.156 9.167 9.156z" fill="#32B8E9"/><path d="M55.983 76.04c-.263-1.955-2.09-4.39-6.137-3.812-4.129.59-7.039.735-8.623-.094V52.65a4.155 4.155 0 001.877-4.886l-1.877-5.764V9.156a2.081 2.081 0 00-4.163 0v20.06l-1.027-3.155a7.006 7.006 0 00-6.678-4.844H18.44a7.004 7.004 0 00-6.676 4.845L4.695 47.766a4.107 4.107 0 00-.105 2.1C1.873 51.326 0 54.16 0 57.451c0 .291 2.18 14.224 2.18 14.224a2.887 2.887 0 002.849 2.41h7.25a2.887 2.887 0 002.848-2.41s2.18-13.933 2.18-14.224c0-3.275-1.854-6.096-4.549-7.563l.845-2.593c3.878 1.718 6.48 5.78 6.48 10.156 0 .272 0 .506-2.218 14.682a5.624 5.624 0 01-4.055 4.494v2.166A4.21 4.21 0 0018.022 83a4.209 4.209 0 004.212-4.207V53.648h3.328v25.145A4.209 4.209 0 0029.774 83a4.209 4.209 0 004.212-4.207V46.659l1.198 3.679c.328 1.01 1.026 1.771 1.876 2.267v21.21c-.217.866-1.683 7.266 2.082 8.29 11.5 3.124 7.433-4.268 10.82-3.756 3.815.577 6.268-.471 6.021-2.31zM14.533 57.45H2.774c0-2.278 1.318-4.234 3.22-5.208.395.328.853.594 1.371.763 1.408.46 2.88.117 3.943-.764 1.904.973 3.223 2.93 3.223 5.209z" fill="#32B8E9"/></svg>