<svg width="77" height="83" fill="none" xmlns="http://www.w3.org/2000/svg"><path d="M75.984 62.65h-9.221l-8.556-6.247a1.863 1.863 0 10-2.2 3.005l4.418 3.243H57.48c-.631 0-1.122.578-1.008 1.2l2.717 15.793c.088.49.509.85 1.008.85h13.148c.5 0 .93-.36 1.009-.86l2.63-15.791a1.013 1.013 0 00-1-1.192zm-9.318 5.522a1.445 1.445 0 01-1.648-1.21 1.463 1.463 0 01.14-.867 1.44 1.44 0 011.079-.78 1.44 1.44 0 011.358.543c.15.193.255.421.29.675.114.78-.421 1.516-1.219 1.639zM28.703 19.49c2.112 0 4.435-1.174 4.435-1.174-1.096-.64-1.657-1.91-1.928-3.19 1.148 1.902 3.138 3.155 5.39 3.155 2.253 0 4.243-1.253 5.391-3.155-.272 1.288-.833 2.55-1.928 3.19 0 0 2.323 1.174 4.435 1.174 1.368 0 2.656-.49 3.165-2.13a.514.514 0 00-.255-.622c-.762-.411-2.436-1.595-2.436-4.03C44.972 9.551 45.76 0 36.6 0s-8.37 9.552-8.37 12.707c0 2.436-1.675 3.62-2.437 4.031a.522.522 0 00-.255.623c.509 1.63 1.797 2.13 3.165 2.13zM57.603 47.674a3.033 3.033 0 00.622-4.242L43.7 23.907c-3.094-4.119-9.256-3.935-13.104-1.069-.009.009-12.035 8.956-12.035 8.956l-7.267-4.022v6.932l6.04 3.347a3.06 3.06 0 003.287-.22l6.854-5.099v7.528l-7.257 20.244a1.042 1.042 0 00.973 1.402h6.285v15.678a4.073 4.073 0 004.075 4.075 4.073 4.073 0 004.076-4.075V61.888h1.964v15.679a4.074 4.074 0 004.076 4.075 4.073 4.073 0 004.076-4.075V61.889h6.285c.727 0 1.227-.72.973-1.403l-7.258-20.244v-3.461l7.635 10.262a3.03 3.03 0 002.437 1.218 2.933 2.933 0 001.788-.587zM9.629 60.732V5.1c0-.964-.79-1.752-1.753-1.752-.965 0-1.753.788-1.753 1.752v55.43a6.884 6.884 0 011.34-.131c.737 0 1.473.114 2.166.333zM20.656 80.853c-2.893-1.446-5.25-4.26-5.25-8.036 0-3.777-2.218-5.416-3.095-5.916-1.06-.411-2.296-.7-3.629-.815a13.844 13.844 0 00-1.218-.052c-.176 0-.36 0-.535.008-1.91.07-3.673.5-5.04 1.175C-.18 68.593.004 71.546.004 71.546.004 80.914 7.043 83 13.31 83c2.761 0 5.374-.403 7.162-.771.692-.132.815-1.06.184-1.376zM5.79 64.281c.359-.035.727-.061 1.095-.07.193-.009.386-.009.579-.009a16.75 16.75 0 013.34.333l.683.158a5.212 5.212 0 00-.403-.727 4.429 4.429 0 00-.649-.772 2.508 2.508 0 00-.552-.385c-.079-.044-.167-.08-.246-.114a5.314 5.314 0 00-3.506-.28c-.28.07-.56.166-.832.288l-.237.106a2.615 2.615 0 00-.57.403c-.403.368-.763.885-1.034 1.48.456-.113.929-.218 1.42-.297.298-.044.596-.088.911-.114z" fill="#32B8E9"/></svg>