<svg width="56" height="83" fill="none" xmlns="http://www.w3.org/2000/svg"><path d="M32.103 18.314c-5.063 0-9.168-4.1-9.168-9.156C22.935 4.1 27.04 0 32.103 0c5.062 0 9.167 4.1 9.167 9.158 0 5.057-4.105 9.156-9.167 9.156z" fill="#32B8E9"/><path d="M.017 76.04c.263-1.955 2.09-4.39 6.137-3.812 4.129.59 7.039.735 8.623-.094V52.65a4.155 4.155 0 01-1.877-4.886l1.877-5.764V9.156a2.081 2.081 0 014.163 0v20.06l1.027-3.155a7.006 7.006 0 016.678-4.844H37.56a7.004 7.004 0 016.676 4.845l7.069 21.704c.23.704.242 1.422.105 2.1 2.717 1.46 4.59 4.294 4.59 7.585 0 .291-2.18 14.224-2.18 14.224a2.887 2.887 0 01-2.849 2.41h-7.25a2.887 2.887 0 01-2.848-2.41s-2.18-13.933-2.18-14.224c0-3.275 1.854-6.096 4.549-7.563l-.845-2.593c-3.878 1.718-6.48 5.78-6.48 10.156 0 .272 0 .506 2.218 14.682a5.624 5.624 0 004.055 4.494v2.166A4.21 4.21 0 0137.978 83a4.209 4.209 0 01-4.212-4.207V53.648h-3.328v25.145A4.209 4.209 0 0126.226 83a4.209 4.209 0 01-4.212-4.207V46.659l-1.197 3.679c-.33 1.01-1.027 1.771-1.877 2.267v21.21c.216.866 1.683 7.266-2.082 8.29-11.5 3.124-7.433-4.268-10.82-3.756-3.815.577-6.268-.471-6.021-2.31zm41.45-18.589h11.758c0-2.278-1.318-4.234-3.22-5.208a4.144 4.144 0 01-1.371.763 4.147 4.147 0 01-3.943-.764c-1.904.973-3.223 2.93-3.223 5.209z" fill="#32B8E9"/></svg>