<svg width="55" height="70" fill="none" xmlns="http://www.w3.org/2000/svg"><path d="M47.996 9.171h-6.332V6.338c0-.916-1-1.333-1.917-1.333h-4.916c-1.167-3.333-4.083-5-7.416-5a7.583 7.583 0 00-7.416 5h-4.833c-.917 0-1.834.417-1.834 1.333v2.833H7c-3.753.04-6.824 3-7 6.75v47.746C0 67.334 3.333 70 7 70h40.996c3.667 0 7-2.666 7-6.333V15.921a7.083 7.083 0 00-7-6.75zm-31.33-.833h4.582a1.834 1.834 0 001.584-1.5 4.833 4.833 0 014.583-3.75 4.75 4.75 0 014.5 3.75c.149.821.834 1.438 1.666 1.5h4.75v6.666H16.665V8.338zm34.997 55.33c0 1.833-1.833 3-3.666 3H7c-1.834 0-3.667-1.168-3.667-3V15.92A3.75 3.75 0 017 12.505h6.332v4.25a1.75 1.75 0 001.834 1.583h24.581a1.833 1.833 0 001.916-1.584v-4.25h6.333a3.75 3.75 0 013.667 3.417v47.746z" fill="#6ABF16"/><path d="M21.082 37.253a1.666 1.666 0 00-2.333-.084l-5.333 5.083-2.25-2.333a1.667 1.667 0 00-2.333-.083 1.75 1.75 0 000 2.416l3.416 3.5a1.5 1.5 0 001.166.5c.44-.006.86-.186 1.167-.5l6.5-6.166a1.583 1.583 0 000-2.333zM44.997 40.836H25.83a1.666 1.666 0 100 3.333h19.166a1.667 1.667 0 100-3.333zM21.082 23.92a1.667 1.667 0 00-2.333-.083l-5.333 5.083-2.25-2.333a1.666 1.666 0 00-2.333-.084 1.75 1.75 0 000 2.417l3.416 3.5a1.5 1.5 0 001.166.5c.44-.007.86-.186 1.167-.5l6.5-6.167a1.583 1.583 0 000-2.333zM44.997 27.503H25.83a1.666 1.666 0 100 3.333h19.166a1.666 1.666 0 100-3.333zM21.082 50.585a1.667 1.667 0 00-2.333-.083l-5.333 5.082-2.25-2.333a1.667 1.667 0 00-2.333-.083 1.75 1.75 0 000 2.416l3.416 3.5a1.5 1.5 0 001.166.5c.44-.006.86-.186 1.167-.5l6.5-6.166a1.583 1.583 0 000-2.333zM44.997 54.168H25.83a1.666 1.666 0 100 3.333h19.166a1.666 1.666 0 100-3.333z" fill="#6ABF16"/></svg>