<svg width="86" height="86" viewBox="0 0 86 86" fill="none" xmlns="http://www.w3.org/2000/svg">
<path d="M19.4603 41.9404C19.4603 40.0873 17.9581 38.5851 16.1051 38.5851C14.2521 38.5851 12.7499 40.0873 12.7499 41.9404C12.7499 43.7934 14.2521 45.2956 16.1051 45.2956C17.9581 45.2956 19.4603 43.7934 19.4603 41.9404Z" fill="white"/>
<path d="M32.8812 41.9404C32.8812 40.0873 31.3791 38.5851 29.526 38.5851C27.673 38.5851 26.1708 40.0873 26.1708 41.9404C26.1708 43.7934 27.673 45.2956 29.526 45.2956C31.3791 45.2956 32.8812 43.7934 32.8812 41.9404Z" fill="white"/>
<path d="M46.3022 41.9404C46.3022 40.0873 44.8 38.5851 42.9469 38.5851C41.0939 38.5851 39.5917 40.0873 39.5917 41.9404C39.5917 43.7934 41.0939 45.2956 42.9469 45.2956C44.8 45.2956 46.3022 43.7934 46.3022 41.9404Z" fill="white"/>
<path d="M59.7231 41.9404C59.7231 40.0873 58.2209 38.5851 56.3678 38.5851C54.5148 38.5851 53.0126 40.0873 53.0126 41.9404C53.0126 43.7934 54.5148 45.2956 56.3678 45.2956C58.2209 45.2956 59.7231 43.7934 59.7231 41.9404Z" fill="white"/>
<path d="M73.144 41.9404C73.144 40.0873 71.6418 38.5851 69.7888 38.5851C67.9357 38.5851 66.4335 40.0873 66.4335 41.9404C66.4335 43.7934 67.9357 45.2956 69.7888 45.2956C71.6418 45.2956 73.144 43.7934 73.144 41.9404Z" fill="white"/>
<path d="M19.4603 55.3613C19.4603 53.5082 17.9581 52.006 16.1051 52.006C14.2521 52.006 12.7499 53.5082 12.7499 55.3613C12.7499 57.2143 14.2521 58.7165 16.1051 58.7165C17.9581 58.7165 19.4603 57.2143 19.4603 55.3613Z" fill="white"/>
<path d="M32.8812 55.3613C32.8812 53.5082 31.3791 52.006 29.526 52.006C27.673 52.006 26.1708 53.5082 26.1708 55.3613C26.1708 57.2143 27.673 58.7165 29.526 58.7165C31.3791 58.7165 32.8812 57.2143 32.8812 55.3613Z" fill="white"/>
<path d="M46.3022 55.3613C46.3022 53.5082 44.8 52.006 42.9469 52.006C41.0939 52.006 39.5917 53.5082 39.5917 55.3613C39.5917 57.2143 41.0939 58.7165 42.9469 58.7165C44.8 58.7165 46.3022 57.2143 46.3022 55.3613Z" fill="white"/>
<path d="M59.7231 55.3613C59.7231 53.5082 58.2209 52.006 56.3678 52.006C54.5148 52.006 53.0126 53.5082 53.0126 55.3613C53.0126 57.2143 54.5148 58.7165 56.3678 58.7165C58.2209 58.7165 59.7231 57.2143 59.7231 55.3613Z" fill="white"/>
<path d="M19.4603 68.7822C19.4603 66.9291 17.9581 65.427 16.1051 65.427C14.2521 65.427 12.7499 66.9291 12.7499 68.7822C12.7499 70.6352 14.2521 72.1374 16.1051 72.1374C17.9581 72.1374 19.4603 70.6352 19.4603 68.7822Z" fill="white"/>
<path d="M32.8812 68.7822C32.8812 66.9291 31.3791 65.427 29.526 65.427C27.673 65.427 26.1708 66.9291 26.1708 68.7822C26.1708 70.6352 27.673 72.1374 29.526 72.1374C31.3791 72.1374 32.8812 70.6352 32.8812 68.7822Z" fill="white"/>
<path d="M46.3022 68.7822C46.3022 66.9291 44.8 65.427 42.9469 65.427C41.0939 65.427 39.5917 66.9291 39.5917 68.7822C39.5917 70.6352 41.0939 72.1374 42.9469 72.1374C44.8 72.1374 46.3022 70.6352 46.3022 68.7822Z" fill="white"/>
<path d="M59.7231 68.7822C59.7231 66.9291 58.2209 65.427 56.3678 65.427C54.5148 65.427 53.0126 66.9291 53.0126 68.7822C53.0126 70.6352 54.5148 72.1374 56.3678 72.1374C58.2209 72.1374 59.7231 70.6352 59.7231 68.7822Z" fill="white"/>
<path d="M73.144 55.3613C73.144 53.5082 71.6418 52.006 69.7888 52.006C67.9357 52.006 66.4335 53.5082 66.4335 55.3613C66.4335 57.2143 67.9357 58.7165 69.7888 58.7165C71.6418 58.7165 73.144 57.2143 73.144 55.3613Z" fill="white"/>
<path fill-rule="evenodd" clip-rule="evenodd" d="M75.8282 6.71046H71.8019V3.35523C71.8019 1.50219 70.2997 0 68.4467 0C66.5936 0 65.0914 1.50219 65.0914 3.35523V6.71046H20.8024V3.35523C20.8024 1.50219 19.3002 0 17.4472 0C15.5941 0 14.092 1.50219 14.092 3.35523V6.71046H10.0657C4.51547 6.71046 0 11.2259 0 16.7761V75.8282C0 81.3784 4.51547 85.8939 10.0657 85.8939H75.8282C81.3784 85.8939 85.8939 81.3784 85.8939 75.8282V16.7761C85.8939 11.2259 81.3784 6.71046 75.8282 6.71046ZM75.8282 79.1834C77.6782 79.1834 79.1834 77.6782 79.1834 75.8282V31.5392H6.71046V75.8282C6.71046 77.6782 8.21561 79.1834 10.0657 79.1834H75.8282ZM6.71046 24.8287H79.1834V16.7761C79.1834 14.9261 77.6782 13.4209 75.8282 13.4209H71.8019V16.7761C71.8019 18.6292 70.2997 20.1314 68.4467 20.1314C66.5936 20.1314 65.0914 18.6292 65.0914 16.7761V13.4209H20.8024V16.7761C20.8024 18.6292 19.3002 20.1314 17.4472 20.1314C15.5941 20.1314 14.092 18.6292 14.092 16.7761V13.4209H10.0657C8.21561 13.4209 6.71046 14.9261 6.71046 16.7761V24.8287Z" fill="white"/>
</svg>
