<svg width="73" height="70" fill="none" xmlns="http://www.w3.org/2000/svg"><path d="M72.782 38.368a28.826 28.826 0 00-8.284-17.482 28.6 28.6 0 00-14.07-7.725V9.54a4.85 4.85 0 003.674-4.698A4.848 4.848 0 0049.259 0H39.004a4.848 4.848 0 00-4.842 4.843 4.85 4.85 0 003.673 4.699v3.629a28.598 28.598 0 00-14.026 7.715 28.895 28.895 0 00-2.418 2.745c-.036-.003-.071-.006-.108-.006h-10.15a1.424 1.424 0 000 2.849h8.32a28.557 28.557 0 00-2.527 5.474H1.424a1.424 1.424 0 000 2.849h14.697a28.955 28.955 0 00-.707 5.474H9.116a1.424 1.424 0 000 2.849h6.343a28.91 28.91 0 00.89 5.474H7.12a1.424 1.424 0 000 2.85h10.137a28.603 28.603 0 006.551 10.13 28.823 28.823 0 0017.5 8.287c.941.093 1.883.139 2.823.139 5.558 0 11.045-1.609 15.701-4.64a1.424 1.424 0 00-1.554-2.388c-10.192 6.637-23.842 5.202-32.456-3.412-10.107-10.107-10.107-26.552 0-36.66 10.108-10.106 26.553-10.106 36.66 0 8.603 8.603 10.046 22.241 3.43 32.428a1.424 1.424 0 102.39 1.551c3.534-5.443 5.125-12.017 4.48-18.51zM37.01 4.843c0-1.1.895-1.994 1.994-1.994H49.26c1.1 0 1.994.894 1.994 1.994s-.894 1.994-1.994 1.994H39.004c-1.1 0-1.994-.895-1.994-1.994zm3.674 7.838V9.685h6.895v2.991a29.02 29.02 0 00-6.895.005z" fill="#6ABF16"/><path d="M63.49 59.142a1.43 1.43 0 00-1.424 1.424 1.426 1.426 0 002.431 1.007c.266-.264.418-.632.418-1.006 0-.375-.152-.742-.417-1.007a1.438 1.438 0 00-1.007-.418zM44.153 19.135c-12.183 0-22.095 9.912-22.095 22.095 0 12.183 9.912 22.095 22.095 22.095 12.184 0 22.095-9.912 22.095-22.095 0-12.183-9.911-22.095-22.095-22.095zm0 41.341c-10.612 0-19.246-8.633-19.246-19.246 0-10.612 8.634-19.246 19.246-19.246 10.613 0 19.247 8.634 19.247 19.246 0 10.613-8.634 19.247-19.247 19.247z" fill="#6ABF16"/><path d="M53.163 30.206l-7.055 7.055a4.399 4.399 0 00-1.955-.457c-.701 0-1.365.165-1.955.457l-3.157-3.158a1.425 1.425 0 00-2.014 2.015l3.157 3.157a4.398 4.398 0 00-.456 1.955 4.43 4.43 0 004.425 4.426 4.43 4.43 0 004.426-4.426c0-.702-.165-1.365-.456-1.955l7.054-7.054a1.424 1.424 0 10-2.014-2.015zm-9.01 12.601a1.58 1.58 0 01-1.577-1.577c0-.87.708-1.577 1.577-1.577.87 0 1.578.707 1.578 1.577a1.58 1.58 0 01-1.578 1.577zM59.382 39.823h-1.32a1.424 1.424 0 000 2.849h1.32a1.424 1.424 0 000-2.849zM30.244 39.788h-1.32a1.424 1.424 0 000 2.849h1.32a1.424 1.424 0 000-2.849zM44.17 28.745c.787 0 1.425-.637 1.425-1.424v-1.32a1.424 1.424 0 00-2.849 0v1.32c0 .787.638 1.424 1.425 1.424zM44.136 53.715c-.787 0-1.424.637-1.424 1.424v1.32a1.424 1.424 0 002.848 0v-1.32c0-.787-.638-1.424-1.424-1.424zM1.424 48.594c-.374 0-.742.152-1.007.417A1.435 1.435 0 000 50.018c0 .376.152.742.417 1.007.265.265.633.418 1.007.418.375 0 .742-.153 1.007-.418.265-.265.418-.632.418-1.007 0-.374-.153-.742-.418-1.007a1.435 1.435 0 00-1.007-.417z" fill="#6ABF16"/></svg>