<svg width="86" height="86" fill="none" xmlns="http://www.w3.org/2000/svg"><path d="M19.46 41.94a3.355 3.355 0 10-6.71 0 3.355 3.355 0 006.71 0zM32.881 41.94a3.355 3.355 0 10-6.71 0 3.355 3.355 0 006.71 0zM46.302 41.94a3.355 3.355 0 10-6.71 0 3.355 3.355 0 006.71 0zM59.723 41.94a3.355 3.355 0 10-6.71 0 3.355 3.355 0 006.71 0zM73.144 41.94a3.355 3.355 0 10-6.71 0 3.355 3.355 0 006.71 0zM19.46 55.361a3.355 3.355 0 10-6.71 0 3.355 3.355 0 006.71 0zM32.881 55.361a3.355 3.355 0 10-6.71 0 3.355 3.355 0 006.71 0zM46.302 55.361a3.355 3.355 0 10-6.71 0 3.355 3.355 0 006.71 0zM59.723 55.361a3.355 3.355 0 10-6.71 0 3.355 3.355 0 006.71 0zM19.46 68.782a3.355 3.355 0 10-6.71 0 3.355 3.355 0 006.71 0zM32.881 68.782a3.355 3.355 0 10-6.71 0 3.355 3.355 0 006.71 0zM46.302 68.782a3.355 3.355 0 10-6.71 0 3.355 3.355 0 006.71 0zM59.723 68.782a3.355 3.355 0 10-6.71 0 3.355 3.355 0 006.71 0zM73.144 55.361a3.355 3.355 0 10-6.71 0 3.355 3.355 0 006.71 0z" fill="#fff"/><path fill-rule="evenodd" clip-rule="evenodd" d="M75.828 6.71h-4.026V3.355a3.355 3.355 0 00-6.71 0V6.71h-44.29V3.355a3.355 3.355 0 00-6.71 0V6.71h-4.026C4.516 6.71 0 11.226 0 16.776v59.052c0 5.55 4.515 10.066 10.066 10.066h65.762c5.55 0 10.066-4.516 10.066-10.066V16.776c0-5.55-4.516-10.066-10.066-10.066zm0 72.473a3.36 3.36 0 003.355-3.355V31.54H6.71v44.29a3.36 3.36 0 003.356 3.354h65.762zM6.71 24.83h72.473v-8.053a3.36 3.36 0 00-3.355-3.355h-4.026v3.355a3.355 3.355 0 11-6.71 0v-3.355h-44.29v3.355a3.355 3.355 0 11-6.71 0v-3.355h-4.026a3.36 3.36 0 00-3.356 3.355v8.053z" fill="#fff"/></svg>