<svg width="83" height="70" fill="none" xmlns="http://www.w3.org/2000/svg"><path d="M17.495 40.713a1.63 1.63 0 00-1.146-.475c-.426 0-.845.173-1.146.475-.302.301-.475.72-.475 1.146 0 .428.174.844.475 1.148.302.301.72.473 1.146.473.426 0 .845-.172 1.146-.473.302-.304.475-.72.475-1.148 0-.426-.173-.845-.475-1.146zM32.782 40.713a1.633 1.633 0 00-1.146-.475c-.426 0-.845.173-1.146.475-.302.301-.475.72-.475 1.146 0 .428.173.844.475 1.148.302.301.72.473 1.146.473.426 0 .845-.172 1.146-.473a1.64 1.64 0 00.475-1.148c0-.426-.173-.845-.475-1.146zM29.809 49.615a1.62 1.62 0 00-1.985 1.147 3.972 3.972 0 01-3.831 2.946 3.973 3.973 0 01-3.832-2.946 1.62 1.62 0 10-3.132.837 7.219 7.219 0 006.964 5.351c3.258 0 6.122-2.2 6.963-5.35a1.621 1.621 0 00-1.147-1.985zM41.5 0c-.895 0-1.621.726-1.621 1.621v10.291a1.621 1.621 0 103.242 0V1.623c0-.896-.726-1.622-1.62-1.622zM42.647 16.495a1.627 1.627 0 00-1.146-.475 1.63 1.63 0 00-1.148.475c-.301.302-.473.72-.473 1.146 0 .426.172.845.473 1.146.303.302.72.475 1.148.475.426 0 .845-.173 1.146-.475.301-.301.475-.72.475-1.146 0-.426-.174-.844-.475-1.146zM31.621 14.738l-4.138-4.135a1.621 1.621 0 00-2.292 2.293l4.139 4.136a1.617 1.617 0 002.293-.001 1.621 1.621 0 00-.002-2.293zM57.814 10.607a1.621 1.621 0 00-2.293 0l-4.4 4.404a1.621 1.621 0 002.293 2.292l4.4-4.404a1.62 1.62 0 000-2.292z" fill="#6ABF16"/><path d="M82.14 39.786c-3.423-12.779-16.605-20.39-29.384-16.965a23.835 23.835 0 00-11.287 6.748 23.869 23.869 0 00-17.476-7.554C10.763 22.015 0 32.778 0 46.007 0 59.237 10.763 70 23.993 70c6.687 0 12.964-2.74 17.494-7.574 4.485 4.756 10.81 7.566 17.484 7.566 2.05 0 4.133-.266 6.205-.82 12.778-3.425 20.389-16.607 16.965-29.386zM23.994 66.758c-11.442 0-20.75-9.309-20.75-20.75 0-11.443 9.308-20.751 20.75-20.751 5.923 0 11.47 2.482 15.407 6.85-.43.61-.835 1.24-1.213 1.893a23.835 23.835 0 00-2.396 18.206 23.873 23.873 0 003.618 7.691 20.654 20.654 0 01-15.416 6.86zm40.343-.718C53.285 69 41.884 62.419 38.922 51.367a20.616 20.616 0 012.073-15.746 21.07 21.07 0 011.78-2.608c2.743-3.436 6.494-5.9 10.82-7.06 1.792-.48 3.593-.71 5.366-.71 9.16 0 17.567 6.123 20.048 15.383 2.961 11.052-3.62 22.452-14.673 25.414z" fill="#6ABF16"/><path d="M54.217 42.818a3.52 3.52 0 00-4.306-2.486 3.52 3.52 0 00-2.486 4.306 1.622 1.622 0 003.131-.84.274.274 0 01.53-.141 1.62 1.62 0 103.131-.84zM68.891 38.886a3.494 3.494 0 00-1.638-2.135 3.493 3.493 0 00-2.668-.351 3.492 3.492 0 00-2.135 1.638 3.493 3.493 0 00-.351 2.668 1.622 1.622 0 003.132-.84.27.27 0 01.027-.207.269.269 0 01.166-.128.27.27 0 01.208.028.269.269 0 01.128.166 1.62 1.62 0 103.131-.84zM67.471 49.058a1.621 1.621 0 00-3.132.839 3.87 3.87 0 01-2.733 4.734 3.84 3.84 0 01-2.933-.386 3.839 3.839 0 01-1.8-2.347 1.62 1.62 0 10-3.132.839 7.06 7.06 0 003.311 4.316 7.066 7.066 0 005.394.71c3.785-1.015 6.04-4.92 5.025-8.705z" fill="#6ABF16"/></svg>